<?xml version="1.0" standalone="no"?><!DOCTYPE svg PUBLIC "-//W3C//DTD SVG 1.1//EN" "http://www.w3.org/Graphics/SVG/1.1/DTD/svg11.dtd"><svg class="icon" width="200px" height="200.00px" viewBox="0 0 1024 1024" version="1.1" xmlns="http://www.w3.org/2000/svg"><path d="M850.03 284.444c3.303-4.77 0-12.478-3.303-18.718s-43.676 3.303-54.687-3.303c-11.01-6.24-24.958-38.538-56.522-40.74-54.686-4.037-66.431 26.059-74.873 50.283-12.112 35.234-34.867 77.075-55.054 103.5-18.35 23.857-53.218 47.347-144.24 44.044-43.676-1.468-164.428-6.24-195.625 17.25s-59.458 69-53.218 114.512c2.202 15.048-3.67 92.123-19.453 104.602-22.021 17.25-34.867 38.904 5.139 16.883 25.691-14.314 39.271-37.07 45.51-51.384 1.469 4.405 2.203 8.442 1.469 13.213-3.303 23.49-54.687 56.522-53.219 67.533 1.468 11.01-3.303 78.543 3.303 91.022 6.24 12.48 45.511 13.947 54.687 4.772 9.543-9.543-6.24-15.783-15.782-24.958-9.543-9.543 0-20.554 3.303-35.969 3.303-15.782 34.5-45.51 60.926-62.76 26.793-17.251 53.219-66.065 64.23-70.47 11.01-4.771 48.447 6.24 100.198 6.24 51.75 0 136.166-1.468 148.645 6.24 12.479 7.707 31.197 57.99 42.208 83.314 11.01 24.958 17.25 84.783 26.793 88.086 9.542 3.303 45.51-4.771 45.51-20.554s-26.792-11.01-29.728-24.957c-3.304-13.947-7.708-136.534 0-157.087 28.26-23.49 26.792-111.576 34.5-126.99 7.707-15.783 37.437-95.794 42.208-106.805 4.771-11.01 35.968-1.468 60.926-11.01 25.325-10.277 12.846-51.017 16.15-55.789z m-87.719-4.037c-6.24 0-11.378-5.138-11.378-11.378 0-6.239 5.139-11.377 11.378-11.377 6.24 0 11.378 5.138 11.378 11.377 0.367 6.24-4.771 11.378-11.378 11.378z" fill="#8a8a8a" /></svg>