<?xml version="1.0" standalone="no"?><!DOCTYPE svg PUBLIC "-//W3C//DTD SVG 1.1//EN" "http://www.w3.org/Graphics/SVG/1.1/DTD/svg11.dtd"><svg t="1569860787545" class="icon" viewBox="0 0 1024 1024" version="1.1" xmlns="http://www.w3.org/2000/svg" p-id="14208" xmlns:xlink="http://www.w3.org/1999/xlink" width="200" height="200"><defs><style type="text/css"></style></defs><path d="M949 202.5c-8.9-10.2-21.7-16.1-35.2-16.1H270.5l-9.1-54.2c-3.7-22.4-23.1-38.9-45.9-38.9H110.8c-25.8 0-46.6 20.8-46.6 46.6s20.8 46.6 46.6 46.6h65.3l86.6 519.7 2.1 5.8 2.5 7 5.6 8.3 4.4 5.2 9 6 5.2 3c5.4 2.2 11.1 3.5 17.1 3.5h512.1c25.7 0 46.6-20.8 46.6-46.6 0-25.7-20.8-46.6-46.6-46.6H348l-7.7-46.6h526.9c23.2 0 42.8-17 46.1-39.9l46.6-325.9c1.9-13.2-2.1-26.8-10.9-36.9z m-88.9 77l-13.3 93.1H681v-93.1h179.1z m-225.6 0v93.1H494.8v-93.1h139.7z m0 139.7v93.1H494.8v-93.1h139.7zM448.3 279.5v93.1H308.6l-6.9 1.4-15.7-94.5h162.3z m-139 139.7h139v93.1H324.8l-15.5-93.1zM681 512.3v-93.1h159.1l-13.3 93.1H681zM378.4 791.6c38.6 0 69.8 31.3 69.8 69.8 0 38.6-31.3 69.8-69.8 69.8-38.6 0-69.8-31.3-69.8-69.8s31.3-69.8 69.8-69.8z m419 0c38.6 0 69.8 31.3 69.8 69.8 0 38.6-31.3 69.8-69.8 69.8-38.6 0-69.8-31.3-69.8-69.8s31.3-69.8 69.8-69.8z" p-id="14209" fill="#8a8a8a"></path></svg>